<mxfile host="Electron" modified="2024-07-12T13:38:07.469Z" agent="Mozilla/5.0 (X11; Linux x86_64) AppleWebKit/537.36 (KHTML, like Gecko) draw.io/24.6.4 Chrome/124.0.6367.207 Electron/30.0.6 Safari/537.36" etag="6zHPa1CrfNfUsd6ZlRBE" version="24.6.4" type="device">
  <diagram name="Page-1" id="qeOqkNg7FczYENuVUiPp">
    <mxGraphModel dx="2104" dy="1084" grid="1" gridSize="10" guides="1" tooltips="1" connect="1" arrows="1" fold="1" page="1" pageScale="1" pageWidth="850" pageHeight="1100" math="0" shadow="0">
      <root>
        <mxCell id="0" />
        <mxCell id="1" parent="0" />
        <mxCell id="FTJUeHpepgrzn1fPxxzk-1" value="" style="shape=image;verticalLabelPosition=bottom;labelBackgroundColor=default;verticalAlign=top;aspect=fixed;imageAspect=0;image=data:image/svg+xml,PHN2ZyB4bWxucz0iaHR0cDovL3d3dy53My5vcmcvMjAwMC9zdmciIHZpZXdCb3g9IjAgMCAyNTcuNDUgNDAuOTgiIGRhdGEtbmFtZT0iTGF5ZXIgMSIgaWQ9IkxheWVyXzEiPjxkZWZzPjxzdHlsZT4uY2xzLTF7ZmlsbDojYTliNWFmO30uY2xzLTJ7ZmlsbDojZjYwO308L3N0eWxlPjwvZGVmcz48dGl0bGU+UmFiYml0TVFfTG9nb19SR0I8L3RpdGxlPjxwYXRoIHRyYW5zZm9ybT0idHJhbnNsYXRlKC0xLjExIC0wLjk4KSIgZD0iTTI1OCwzNS43MmwtMS44Miw1LjY4aC0wLjU2bC0xLjgzLTUuNjhoMFY0MS40aC0wLjQ5VjM1LjIzaDAuODlsMS43Myw1LjQxaDBsMS43My01LjQxaDAuODdWNDEuNGgtMC40OVYzNS43MmgwWm0wLDAiIGNsYXNzPSJjbHMtMSIvPjxwb2x5Z29uIHBvaW50cz0iMjUxLjYgMzQuMjUgMjQ5LjA2IDM0LjI1IDI0OC41NyAzNC4yNSAyNDYuMDQgMzQuMjUgMjQ2LjA0IDM0Ljc0IDI0OC41NyAzNC43NCAyNDguNTcgNDAuNDIgMjQ5LjA2IDQwLjQyIDI0OS4wNiAzNC43NCAyNTEuNiAzNC43NCAyNTEuNiAzNC4yNSIgY2xhc3M9ImNscy0xIi8+PHBhdGggdHJhbnNmb3JtPSJ0cmFuc2xhdGUoLTEuMTEgLTAuOTgpIiBkPSJNMTk0LDQxLjMxaC0zLjYyTDE3OC40OCw0LjgzVjQxLjMxaC0zLjE3VjEuNjZIMTgxbDExLjA4LDM0LjcxaDAuMTJMMjAzLjMyLDEuNjZoNS41NlY0MS4zMWgtMy4xNFY0LjgzWiIgY2xhc3M9ImNscy0xIi8+PHBhdGggdHJhbnNmb3JtPSJ0cmFuc2xhdGUoLTEuMTEgLTAuOTgpIiBkPSJNNDcuOCwxLjY1VjQxLjMxaDMuNDRWMjMuMzhINTZhMTAuNDgsMTAuNDgsMCwwLDEsMy43LjZjMy41MSwxLjMzLDMuOTEsNS40LDQuNTQsOGwyLDkuMzhINjkuN2wtMi4yNS0xMC43Yy0wLjY2LTMuMjItMS4xLTQuNi0yLTYtMS4xOS0xLjg1LTQuNTktMi44NS00LjU5LTIuODUsNS41OC0xLjA5LDgtNC44Myw4LTkuOTMsMC00LjY4LTIuMjctMTAuMTUtMTIuNjktMTAuMTVINDcuOFptMy40NCwzLjE2aDQuNTRjOS4wNywwLDkuNiw0LjgyLDkuNiw3LDAsMS44MS0uMzMsOC40MS0xMSw4LjQxSDUxLjI0VjQuODJoMFptMCwwIiBjbGFzcz0iY2xzLTIiLz48cGF0aCB0cmFuc2Zvcm09InRyYW5zbGF0ZSgtMS4xMSAtMC45OCkiIGQ9Ik03My43OSwyMC41MWgzLjUyYzAuMzItMS42LDEtNC40NCw1LjY5LTQuNDQsNi4xNCwwLDUuOTQsNS4zMiw1Ljk0LDcuMzh2Mi40cy0yLDAtMy4yNC4xMmMtNC42OS4zNi0xMi4zNSwxLjU4LTEyLjM1LDguNjVzNS44Niw3LjMxLDcsNy4zMWExMC4wNiwxMC4wNiwwLDAsMCw0Ljg0LTEuMTUsMTAuMzEsMTAuMzEsMCwwLDAsMy42Ni0zLjM0aDAuMTJ2My44N2gyLjg1VjIyLjYzYzAtMi43OS4yNi05LjMtOC41NS05LjNTNzMuNzksMTkuMjEsNzMuNzksMjAuNTFabTE1LjE0LDguMDhhMjUuNTIsMjUuNTIsMCwwLDEtLjIsMy4xNiw3LjkzLDcuOTMsMCwwLDEtNy44Niw2LjczLDMuNzEsMy43MSwwLDAsMS00LjA2LTMuNzFjMC0xLjQ1LjU2LTQuODQsNi4xMy01LjkxQzg0LjExLDI4LjY0LDg4LjkzLDI4LjU5LDg4LjkzLDI4LjU5WiIgY2xhc3M9ImNscy0yIi8+PHBhdGggdHJhbnNmb3JtPSJ0cmFuc2xhdGUoLTEuMTEgLTAuOTgpIiBkPSJNOTYuNTQsMS42NVYzMC4xMWMwLDEuNTQuMDUsMTEuODMsOS41MywxMS44MywyLjI4LDAsMTAuNi0uOCwxMC42LTE0cy03LjMtMTQuNTktOS41LTE0LjU5YTcuODksNy44OSwwLDAsMC03LjY0LDUuNzhoLTAuMVYxLjY1aC0yLjlabTE2LjY3LDI2LjIxYzAsMTEuMDctNi4xOCwxMS4zLTcuMTQsMTEuM3MtNi41MywwLTYuNTMtMTAuODVjMC05LDQuMzMtMTIuMjUsNy4zMS0xMi4yNVMxMTMuMjEsMTkuMTMsMTEzLjIxLDI3Ljg3WiIgY2xhc3M9ImNscy0yIi8+PHBhdGggdHJhbnNmb3JtPSJ0cmFuc2xhdGUoLTEuMTEgLTAuOTgpIiBkPSJNMTIxLjEzLDEuNjVWMzAuMTFjMCwxLjU0LjA1LDExLjgzLDkuNTMsMTEuODMsMi4yOCwwLDEwLjYtLjgsMTAuNi0xNHMtNy4zLTE0LjU5LTkuNS0xNC41OWE3Ljg5LDcuODksMCwwLDAtNy42NCw1Ljc4SDEyNFYxLjY1aC0yLjlabTE2LjY3LDI2LjIxYzAsMTEuMDctNi4xOCwxMS4zLTcuMTQsMTEuM3MtNi41MywwLTYuNTMtMTAuODVjMC05LDQuMzMtMTIuMjUsNy4zMS0xMi4yNVMxMzcuNzksMTkuMTMsMTM3Ljc5LDI3Ljg3WiIgY2xhc3M9ImNscy0yIi8+PHBhdGggdHJhbnNmb3JtPSJ0cmFuc2xhdGUoLTEuMTEgLTAuOTgpIiBkPSJNMTQ5LDEzLjk1VjQxLjMxaC0yLjg3VjEzLjk1SDE0OVoiIGNsYXNzPSJjbHMtMiIvPjxwYXRoIHRyYW5zZm9ybT0idHJhbnNsYXRlKC0xLjExIC0wLjk4KSIgZD0iTTE0OS42NiwxLjY2VjYuMzFoLTQuMjRWMS42Nmg0LjI0Wm0wLDAiIGNsYXNzPSJjbHMtMiIvPjxwYXRoIHRyYW5zZm9ybT0idHJhbnNsYXRlKC0xLjExIC0wLjk4KSIgZD0iTTE2OSw0MS42OWEyOC4xOSwyOC4xOSwwLDAsMS0yLjkyLjI1LDguNDgsOC40OCwwLDAsMS01LjQ1LTEuNTdjLTEuMi0xLTEuNzktMi43Ni0xLjc5LTUuMTdWMTYuNjloLTQuMzhWMTMuOTVoNC4zOFY3LjYzbDIuODUtMS45MXY4LjIySDE2OXYyLjc0aC03LjN2MTcuNmMwLDAuNzktLjE5LDQuODcsNC4xNCw0Ljg3YTExLjE4LDExLjE4LDAsMCwwLDMuMTYtLjQ5djNoMFptMCwwIiBjbGFzcz0iY2xzLTIiLz48cGF0aCB0cmFuc2Zvcm09InRyYW5zbGF0ZSgtMS4xMSAtMC45OCkiIGQ9Ik0zOS40MiwxNy4zN0gyNi42NWExLjU5LDEuNTksMCwwLDEtMS42LTEuNlYzYTEuNTksMS41OSwwLDAsMC0xLjYtMS41OUgxOC42N0ExLjU5LDEuNTksMCwwLDAsMTcuMDcsM1YxNS43N2ExLjU5LDEuNTksMCwwLDEtMS42LDEuNkgxMC42OWExLjU5LDEuNTksMCwwLDEtMS42LTEuNlYzQTEuNTksMS41OSwwLDAsMCw3LjQ5LDEuNEgyLjdBMS41OSwxLjU5LDAsMCwwLDEuMTEsM1YzOS43MmExLjU5LDEuNTksMCwwLDAsMS42LDEuNkgzOS40MmExLjU5LDEuNTksMCwwLDAsMS42LTEuNlYxOUExLjU5LDEuNTksMCwwLDAsMzkuNDIsMTcuMzdaTTMzLDMwLjkzYTIuMzksMi4zOSwwLDAsMS0yLjM5LDIuNGgtMy4yYTIuMzksMi4zOSwwLDAsMS0yLjM5LTIuNFYyNy43NGEyLjM5LDIuMzksMCwwLDEsMi4zOS0yLjRoMy4yQTIuMzksMi4zOSwwLDAsMSwzMywyNy43NHYzLjE5WiIgY2xhc3M9ImNscy0yIi8+PHBhdGggdHJhbnNmb3JtPSJ0cmFuc2xhdGUoLTEuMTEgLTAuOTgpIiBkPSJNMjM1LjI2LDM4LjYyYzMuNjctMy4xNCw1LjYzLTksNS42My0xNy40NSwwLTEyLjMxLTQuNjUtMjAuMi0xMy4zMy0yMC4yLTguMTQsMC0xMy44MSw2LjYxLTEzLjgxLDIwLjJzNC44MiwyMC4xNiwxMy41NywyMC4xNmwwLjM3LDB2MGgxNlYzOFpNMjE3LjUyLDIxLjE4YzAtMTEuMywzLjIzLTE2Ljc5LDEwLTE2Ljc5czkuNTYsNi41Niw5LjU2LDE2Ljc5UzIzNC42MiwzOCwyMjcuMzUsMzgsMjE3LjUyLDMyLjQ4LDIxNy41MiwyMS4xOFoiIGNsYXNzPSJjbHMtMSIvPjwvc3ZnPg==;" vertex="1" parent="1">
          <mxGeometry x="1286.58" y="10" width="188.05" height="30" as="geometry" />
        </mxCell>
        <mxCell id="FTJUeHpepgrzn1fPxxzk-2" value="" style="rounded=1;whiteSpace=wrap;html=1;verticalAlign=top;" vertex="1" parent="1">
          <mxGeometry x="1270" y="60" width="221.22" height="950" as="geometry" />
        </mxCell>
        <mxCell id="FTJUeHpepgrzn1fPxxzk-4" value="Publisher" style="rounded=0;whiteSpace=wrap;html=1;fillColor=none;verticalAlign=top;align=center;" vertex="1" parent="1">
          <mxGeometry x="1520" y="40" width="220" height="970" as="geometry" />
        </mxCell>
        <mxCell id="FTJUeHpepgrzn1fPxxzk-5" value="Subscriber" style="rounded=0;whiteSpace=wrap;html=1;fillColor=none;verticalAlign=top;align=center;" vertex="1" parent="1">
          <mxGeometry x="1060" y="40" width="180" height="970" as="geometry" />
        </mxCell>
        <mxCell id="FTJUeHpepgrzn1fPxxzk-41" style="edgeStyle=orthogonalEdgeStyle;rounded=0;orthogonalLoop=1;jettySize=auto;html=1;exitX=0;exitY=0.5;exitDx=0;exitDy=0;entryX=1;entryY=0.5;entryDx=0;entryDy=0;" edge="1" parent="1" source="FTJUeHpepgrzn1fPxxzk-7" target="FTJUeHpepgrzn1fPxxzk-40">
          <mxGeometry relative="1" as="geometry">
            <Array as="points">
              <mxPoint x="1250" y="115" />
              <mxPoint x="1250" y="140" />
            </Array>
          </mxGeometry>
        </mxCell>
        <mxCell id="FTJUeHpepgrzn1fPxxzk-7" value="job_submissions" style="rounded=1;whiteSpace=wrap;html=1;fillColor=#dae8fc;strokeColor=#6c8ebf;" vertex="1" parent="1">
          <mxGeometry x="1320.61" y="100" width="120" height="30" as="geometry" />
        </mxCell>
        <mxCell id="FTJUeHpepgrzn1fPxxzk-13" style="edgeStyle=orthogonalEdgeStyle;rounded=0;orthogonalLoop=1;jettySize=auto;html=1;entryX=1;entryY=0.5;entryDx=0;entryDy=0;" edge="1" parent="1" source="FTJUeHpepgrzn1fPxxzk-8" target="FTJUeHpepgrzn1fPxxzk-12">
          <mxGeometry relative="1" as="geometry">
            <Array as="points">
              <mxPoint x="1250" y="265" />
              <mxPoint x="1250" y="305" />
            </Array>
          </mxGeometry>
        </mxCell>
        <mxCell id="FTJUeHpepgrzn1fPxxzk-8" value="jobs.&amp;lt;uuid&amp;gt;.result" style="rounded=1;whiteSpace=wrap;html=1;fillColor=#dae8fc;strokeColor=#6c8ebf;" vertex="1" parent="1">
          <mxGeometry x="1320.61" y="250" width="120" height="30" as="geometry" />
        </mxCell>
        <mxCell id="FTJUeHpepgrzn1fPxxzk-14" style="edgeStyle=orthogonalEdgeStyle;rounded=0;orthogonalLoop=1;jettySize=auto;html=1;entryX=1;entryY=0.5;entryDx=0;entryDy=0;" edge="1" parent="1" source="FTJUeHpepgrzn1fPxxzk-9" target="FTJUeHpepgrzn1fPxxzk-12">
          <mxGeometry relative="1" as="geometry">
            <mxPoint x="1200" y="300" as="targetPoint" />
          </mxGeometry>
        </mxCell>
        <mxCell id="FTJUeHpepgrzn1fPxxzk-9" value="jobs.&amp;lt;uuid&amp;gt;.progress" style="rounded=1;whiteSpace=wrap;html=1;fillColor=#dae8fc;strokeColor=#6c8ebf;" vertex="1" parent="1">
          <mxGeometry x="1320.61" y="290" width="120" height="30" as="geometry" />
        </mxCell>
        <mxCell id="FTJUeHpepgrzn1fPxxzk-15" style="edgeStyle=orthogonalEdgeStyle;rounded=0;orthogonalLoop=1;jettySize=auto;html=1;exitX=0;exitY=0.5;exitDx=0;exitDy=0;" edge="1" parent="1" source="FTJUeHpepgrzn1fPxxzk-10" target="FTJUeHpepgrzn1fPxxzk-12">
          <mxGeometry relative="1" as="geometry">
            <Array as="points">
              <mxPoint x="1250" y="345" />
              <mxPoint x="1250" y="305" />
            </Array>
          </mxGeometry>
        </mxCell>
        <mxCell id="FTJUeHpepgrzn1fPxxzk-10" value="jobs.&amp;lt;uuid&amp;gt;.status" style="rounded=1;whiteSpace=wrap;html=1;fillColor=#dae8fc;strokeColor=#6c8ebf;" vertex="1" parent="1">
          <mxGeometry x="1320.61" y="330" width="120" height="30" as="geometry" />
        </mxCell>
        <mxCell id="FTJUeHpepgrzn1fPxxzk-42" style="edgeStyle=orthogonalEdgeStyle;rounded=0;orthogonalLoop=1;jettySize=auto;html=1;exitX=0;exitY=0.5;exitDx=0;exitDy=0;entryX=1;entryY=0.5;entryDx=0;entryDy=0;" edge="1" parent="1" source="FTJUeHpepgrzn1fPxxzk-11" target="FTJUeHpepgrzn1fPxxzk-40">
          <mxGeometry relative="1" as="geometry">
            <mxPoint x="1210" y="130" as="targetPoint" />
            <Array as="points">
              <mxPoint x="1250" y="155" />
              <mxPoint x="1250" y="140" />
            </Array>
          </mxGeometry>
        </mxCell>
        <mxCell id="FTJUeHpepgrzn1fPxxzk-11" value="job_cancellations" style="rounded=1;whiteSpace=wrap;html=1;fillColor=#dae8fc;strokeColor=#6c8ebf;" vertex="1" parent="1">
          <mxGeometry x="1320.61" y="140" width="120" height="30" as="geometry" />
        </mxCell>
        <mxCell id="FTJUeHpepgrzn1fPxxzk-12" value="SDK" style="rounded=1;whiteSpace=wrap;html=1;fillColor=#fff2cc;strokeColor=#d6b656;" vertex="1" parent="1">
          <mxGeometry x="1100" y="275" width="120" height="60" as="geometry" />
        </mxCell>
        <mxCell id="FTJUeHpepgrzn1fPxxzk-17" style="edgeStyle=orthogonalEdgeStyle;rounded=0;orthogonalLoop=1;jettySize=auto;html=1;entryX=1;entryY=0.5;entryDx=0;entryDy=0;" edge="1" parent="1" source="FTJUeHpepgrzn1fPxxzk-16" target="FTJUeHpepgrzn1fPxxzk-7">
          <mxGeometry relative="1" as="geometry">
            <Array as="points">
              <mxPoint x="1510" y="130" />
              <mxPoint x="1510" y="115" />
            </Array>
          </mxGeometry>
        </mxCell>
        <mxCell id="FTJUeHpepgrzn1fPxxzk-18" style="edgeStyle=orthogonalEdgeStyle;rounded=0;orthogonalLoop=1;jettySize=auto;html=1;exitX=0;exitY=0.5;exitDx=0;exitDy=0;entryX=1;entryY=0.5;entryDx=0;entryDy=0;" edge="1" parent="1" source="FTJUeHpepgrzn1fPxxzk-16" target="FTJUeHpepgrzn1fPxxzk-11">
          <mxGeometry relative="1" as="geometry">
            <Array as="points">
              <mxPoint x="1510" y="130" />
              <mxPoint x="1510" y="155" />
            </Array>
          </mxGeometry>
        </mxCell>
        <mxCell id="FTJUeHpepgrzn1fPxxzk-16" value="SDK" style="rounded=1;whiteSpace=wrap;html=1;fillColor=#fff2cc;strokeColor=#d6b656;" vertex="1" parent="1">
          <mxGeometry x="1560" y="100" width="120" height="60" as="geometry" />
        </mxCell>
        <mxCell id="FTJUeHpepgrzn1fPxxzk-23" style="edgeStyle=orthogonalEdgeStyle;rounded=0;orthogonalLoop=1;jettySize=auto;html=1;exitX=0;exitY=0.5;exitDx=0;exitDy=0;entryX=1;entryY=0.5;entryDx=0;entryDy=0;" edge="1" parent="1" source="FTJUeHpepgrzn1fPxxzk-19" target="FTJUeHpepgrzn1fPxxzk-8">
          <mxGeometry relative="1" as="geometry">
            <Array as="points">
              <mxPoint x="1510" y="320" />
              <mxPoint x="1510" y="265" />
            </Array>
          </mxGeometry>
        </mxCell>
        <mxCell id="FTJUeHpepgrzn1fPxxzk-24" style="edgeStyle=orthogonalEdgeStyle;rounded=0;orthogonalLoop=1;jettySize=auto;html=1;exitX=0;exitY=0.5;exitDx=0;exitDy=0;entryX=1;entryY=0.5;entryDx=0;entryDy=0;" edge="1" parent="1" source="FTJUeHpepgrzn1fPxxzk-19" target="FTJUeHpepgrzn1fPxxzk-9">
          <mxGeometry relative="1" as="geometry">
            <Array as="points">
              <mxPoint x="1510" y="320" />
              <mxPoint x="1510" y="305" />
            </Array>
          </mxGeometry>
        </mxCell>
        <mxCell id="FTJUeHpepgrzn1fPxxzk-25" style="edgeStyle=orthogonalEdgeStyle;rounded=0;orthogonalLoop=1;jettySize=auto;html=1;exitX=0;exitY=0.5;exitDx=0;exitDy=0;entryX=1;entryY=0.5;entryDx=0;entryDy=0;" edge="1" parent="1" source="FTJUeHpepgrzn1fPxxzk-19" target="FTJUeHpepgrzn1fPxxzk-10">
          <mxGeometry relative="1" as="geometry">
            <Array as="points">
              <mxPoint x="1510" y="320" />
              <mxPoint x="1510" y="345" />
            </Array>
          </mxGeometry>
        </mxCell>
        <mxCell id="FTJUeHpepgrzn1fPxxzk-19" value="Orchestrator" style="rounded=1;whiteSpace=wrap;html=1;fillColor=#ffe6cc;strokeColor=#d79b00;" vertex="1" parent="1">
          <mxGeometry x="1560" y="290" width="120" height="60" as="geometry" />
        </mxCell>
        <mxCell id="FTJUeHpepgrzn1fPxxzk-20" value="SDK" style="rounded=1;whiteSpace=wrap;html=1;fillColor=#fff2cc;strokeColor=#d6b656;" vertex="1" parent="1">
          <mxGeometry x="1570" y="110" width="120" height="60" as="geometry" />
        </mxCell>
        <mxCell id="FTJUeHpepgrzn1fPxxzk-21" value="SDK" style="rounded=1;whiteSpace=wrap;html=1;fillColor=#fff2cc;strokeColor=#d6b656;" vertex="1" parent="1">
          <mxGeometry x="1580" y="120" width="120" height="60" as="geometry" />
        </mxCell>
        <mxCell id="FTJUeHpepgrzn1fPxxzk-22" value="SDK" style="rounded=1;whiteSpace=wrap;html=1;fillColor=#fff2cc;strokeColor=#d6b656;" vertex="1" parent="1">
          <mxGeometry x="1590" y="130" width="120" height="60" as="geometry" />
        </mxCell>
        <mxCell id="FTJUeHpepgrzn1fPxxzk-28" value="Virtualhost: /omotes_celery/" style="text;html=1;align=center;verticalAlign=middle;whiteSpace=wrap;rounded=0;" vertex="1" parent="1">
          <mxGeometry x="1270" y="630" width="155" height="30" as="geometry" />
        </mxCell>
        <mxCell id="FTJUeHpepgrzn1fPxxzk-38" style="edgeStyle=orthogonalEdgeStyle;rounded=0;orthogonalLoop=1;jettySize=auto;html=1;exitX=0;exitY=0.5;exitDx=0;exitDy=0;entryX=1;entryY=0.5;entryDx=0;entryDy=0;" edge="1" parent="1" source="FTJUeHpepgrzn1fPxxzk-29" target="FTJUeHpepgrzn1fPxxzk-37">
          <mxGeometry relative="1" as="geometry">
            <Array as="points">
              <mxPoint x="1250" y="705" />
              <mxPoint x="1250" y="730" />
            </Array>
          </mxGeometry>
        </mxCell>
        <mxCell id="FTJUeHpepgrzn1fPxxzk-29" value="omotes_task_result_events" style="rounded=1;whiteSpace=wrap;html=1;fillColor=#dae8fc;strokeColor=#6c8ebf;" vertex="1" parent="1">
          <mxGeometry x="1295.9099999999999" y="690" width="169.39" height="30" as="geometry" />
        </mxCell>
        <mxCell id="FTJUeHpepgrzn1fPxxzk-39" style="edgeStyle=orthogonalEdgeStyle;rounded=0;orthogonalLoop=1;jettySize=auto;html=1;exitX=0;exitY=0.5;exitDx=0;exitDy=0;entryX=1;entryY=0.5;entryDx=0;entryDy=0;" edge="1" parent="1" source="FTJUeHpepgrzn1fPxxzk-30" target="FTJUeHpepgrzn1fPxxzk-37">
          <mxGeometry relative="1" as="geometry">
            <Array as="points">
              <mxPoint x="1250" y="755" />
              <mxPoint x="1250" y="730" />
            </Array>
          </mxGeometry>
        </mxCell>
        <mxCell id="FTJUeHpepgrzn1fPxxzk-30" value="omotes_task_progress_events" style="rounded=1;whiteSpace=wrap;html=1;fillColor=#dae8fc;strokeColor=#6c8ebf;" vertex="1" parent="1">
          <mxGeometry x="1295.9099999999999" y="740" width="169.39" height="30" as="geometry" />
        </mxCell>
        <mxCell id="FTJUeHpepgrzn1fPxxzk-32" style="edgeStyle=orthogonalEdgeStyle;rounded=0;orthogonalLoop=1;jettySize=auto;html=1;exitX=0;exitY=0.5;exitDx=0;exitDy=0;entryX=1;entryY=0.5;entryDx=0;entryDy=0;" edge="1" parent="1" source="FTJUeHpepgrzn1fPxxzk-31" target="FTJUeHpepgrzn1fPxxzk-29">
          <mxGeometry relative="1" as="geometry" />
        </mxCell>
        <mxCell id="FTJUeHpepgrzn1fPxxzk-33" style="edgeStyle=orthogonalEdgeStyle;rounded=0;orthogonalLoop=1;jettySize=auto;html=1;exitX=0;exitY=0.5;exitDx=0;exitDy=0;entryX=1;entryY=0.5;entryDx=0;entryDy=0;" edge="1" parent="1" source="FTJUeHpepgrzn1fPxxzk-31" target="FTJUeHpepgrzn1fPxxzk-30">
          <mxGeometry relative="1" as="geometry" />
        </mxCell>
        <mxCell id="FTJUeHpepgrzn1fPxxzk-31" value="Worker" style="rounded=1;whiteSpace=wrap;html=1;fillColor=#d5e8d4;strokeColor=#82b366;" vertex="1" parent="1">
          <mxGeometry x="1560" y="700" width="120" height="60" as="geometry" />
        </mxCell>
        <mxCell id="FTJUeHpepgrzn1fPxxzk-34" value="Worker" style="rounded=1;whiteSpace=wrap;html=1;fillColor=#d5e8d4;strokeColor=#82b366;" vertex="1" parent="1">
          <mxGeometry x="1570" y="710" width="120" height="60" as="geometry" />
        </mxCell>
        <mxCell id="FTJUeHpepgrzn1fPxxzk-35" value="Worker" style="rounded=1;whiteSpace=wrap;html=1;fillColor=#d5e8d4;strokeColor=#82b366;" vertex="1" parent="1">
          <mxGeometry x="1580" y="720" width="120" height="60" as="geometry" />
        </mxCell>
        <mxCell id="FTJUeHpepgrzn1fPxxzk-36" value="Worker" style="rounded=1;whiteSpace=wrap;html=1;fillColor=#d5e8d4;strokeColor=#82b366;" vertex="1" parent="1">
          <mxGeometry x="1590" y="730" width="120" height="60" as="geometry" />
        </mxCell>
        <mxCell id="FTJUeHpepgrzn1fPxxzk-37" value="Orchestrator" style="rounded=1;whiteSpace=wrap;html=1;fillColor=#ffe6cc;strokeColor=#d79b00;" vertex="1" parent="1">
          <mxGeometry x="1100" y="700" width="120" height="60" as="geometry" />
        </mxCell>
        <mxCell id="FTJUeHpepgrzn1fPxxzk-40" value="Orchestrator" style="rounded=1;whiteSpace=wrap;html=1;fillColor=#ffe6cc;strokeColor=#d79b00;" vertex="1" parent="1">
          <mxGeometry x="1100" y="110" width="120" height="60" as="geometry" />
        </mxCell>
        <mxCell id="FTJUeHpepgrzn1fPxxzk-43" value="Worker" style="rounded=1;whiteSpace=wrap;html=1;fillColor=#d5e8d4;strokeColor=#82b366;" vertex="1" parent="1">
          <mxGeometry x="1075" y="875" width="120" height="60" as="geometry" />
        </mxCell>
        <mxCell id="FTJUeHpepgrzn1fPxxzk-44" value="Worker" style="rounded=1;whiteSpace=wrap;html=1;fillColor=#d5e8d4;strokeColor=#82b366;" vertex="1" parent="1">
          <mxGeometry x="1085" y="885" width="120" height="60" as="geometry" />
        </mxCell>
        <mxCell id="FTJUeHpepgrzn1fPxxzk-45" value="Worker" style="rounded=1;whiteSpace=wrap;html=1;fillColor=#d5e8d4;strokeColor=#82b366;" vertex="1" parent="1">
          <mxGeometry x="1095" y="895" width="120" height="60" as="geometry" />
        </mxCell>
        <mxCell id="FTJUeHpepgrzn1fPxxzk-46" value="Worker" style="rounded=1;whiteSpace=wrap;html=1;fillColor=#d5e8d4;strokeColor=#82b366;" vertex="1" parent="1">
          <mxGeometry x="1105" y="905" width="120" height="60" as="geometry" />
        </mxCell>
        <mxCell id="FTJUeHpepgrzn1fPxxzk-50" style="edgeStyle=orthogonalEdgeStyle;rounded=0;orthogonalLoop=1;jettySize=auto;html=1;exitX=0;exitY=0.5;exitDx=0;exitDy=0;entryX=1;entryY=0.5;entryDx=0;entryDy=0;" edge="1" parent="1" source="FTJUeHpepgrzn1fPxxzk-47" target="FTJUeHpepgrzn1fPxxzk-46">
          <mxGeometry relative="1" as="geometry" />
        </mxCell>
        <mxCell id="FTJUeHpepgrzn1fPxxzk-47" value="Celery queues, controlled by Celery" style="rounded=0;whiteSpace=wrap;html=1;fillColor=#f5f5f5;fontColor=#333333;strokeColor=#666666;" vertex="1" parent="1">
          <mxGeometry x="1286.58" y="850" width="187.5" height="140" as="geometry" />
        </mxCell>
        <mxCell id="FTJUeHpepgrzn1fPxxzk-49" style="edgeStyle=orthogonalEdgeStyle;rounded=0;orthogonalLoop=1;jettySize=auto;html=1;exitX=0;exitY=0.5;exitDx=0;exitDy=0;entryX=1;entryY=0.5;entryDx=0;entryDy=0;" edge="1" parent="1" source="FTJUeHpepgrzn1fPxxzk-48" target="FTJUeHpepgrzn1fPxxzk-47">
          <mxGeometry relative="1" as="geometry" />
        </mxCell>
        <mxCell id="FTJUeHpepgrzn1fPxxzk-48" value="Orchestrator" style="rounded=1;whiteSpace=wrap;html=1;fillColor=#ffe6cc;strokeColor=#d79b00;" vertex="1" parent="1">
          <mxGeometry x="1560" y="890" width="120" height="60" as="geometry" />
        </mxCell>
        <mxCell id="FTJUeHpepgrzn1fPxxzk-51" value="" style="endArrow=none;html=1;rounded=0;strokeWidth=3;" edge="1" parent="1">
          <mxGeometry width="50" height="50" relative="1" as="geometry">
            <mxPoint x="860" y="210" as="sourcePoint" />
            <mxPoint x="1760" y="210" as="targetPoint" />
          </mxGeometry>
        </mxCell>
        <mxCell id="FTJUeHpepgrzn1fPxxzk-53" value="Controlling jobs" style="shape=note;strokeWidth=2;fontSize=14;size=20;whiteSpace=wrap;html=1;fillColor=#fff2cc;strokeColor=#d6b656;fontColor=#666600;" vertex="1" parent="1">
          <mxGeometry x="890" y="100" width="110.00000000000001" height="80" as="geometry" />
        </mxCell>
        <mxCell id="FTJUeHpepgrzn1fPxxzk-54" value="Receiving feedback from jobs" style="shape=note;strokeWidth=2;fontSize=14;size=20;whiteSpace=wrap;html=1;fillColor=#fff2cc;strokeColor=#d6b656;fontColor=#666600;" vertex="1" parent="1">
          <mxGeometry x="890" y="260" width="110.00000000000001" height="80" as="geometry" />
        </mxCell>
        <mxCell id="FTJUeHpepgrzn1fPxxzk-55" value="" style="endArrow=none;html=1;rounded=0;strokeWidth=3;" edge="1" parent="1">
          <mxGeometry width="50" height="50" relative="1" as="geometry">
            <mxPoint x="860" y="380" as="sourcePoint" />
            <mxPoint x="1760" y="380" as="targetPoint" />
          </mxGeometry>
        </mxCell>
        <mxCell id="FTJUeHpepgrzn1fPxxzk-56" value="Communicate current workflow definitions" style="shape=note;strokeWidth=2;fontSize=14;size=20;whiteSpace=wrap;html=1;fillColor=#fff2cc;strokeColor=#d6b656;fontColor=#666600;" vertex="1" parent="1">
          <mxGeometry x="890" y="465" width="110.00000000000001" height="80" as="geometry" />
        </mxCell>
        <mxCell id="FTJUeHpepgrzn1fPxxzk-62" style="edgeStyle=orthogonalEdgeStyle;rounded=0;orthogonalLoop=1;jettySize=auto;html=1;exitX=0;exitY=0.5;exitDx=0;exitDy=0;entryX=1;entryY=0.5;entryDx=0;entryDy=0;" edge="1" parent="1" source="FTJUeHpepgrzn1fPxxzk-57" target="FTJUeHpepgrzn1fPxxzk-84">
          <mxGeometry relative="1" as="geometry" />
        </mxCell>
        <mxCell id="FTJUeHpepgrzn1fPxxzk-57" value="" style="rounded=1;whiteSpace=wrap;html=1;fillColor=#dae8fc;strokeColor=#6c8ebf;" vertex="1" parent="1">
          <mxGeometry x="1270" y="510" width="164.09" height="30" as="geometry" />
        </mxCell>
        <mxCell id="FTJUeHpepgrzn1fPxxzk-60" style="edgeStyle=orthogonalEdgeStyle;rounded=0;orthogonalLoop=1;jettySize=auto;html=1;exitX=0;exitY=0.5;exitDx=0;exitDy=0;entryX=1;entryY=0.5;entryDx=0;entryDy=0;" edge="1" parent="1" source="FTJUeHpepgrzn1fPxxzk-58" target="FTJUeHpepgrzn1fPxxzk-59">
          <mxGeometry relative="1" as="geometry" />
        </mxCell>
        <mxCell id="FTJUeHpepgrzn1fPxxzk-58" value="request_available_workflows" style="rounded=1;whiteSpace=wrap;html=1;fillColor=#dae8fc;strokeColor=#6c8ebf;" vertex="1" parent="1">
          <mxGeometry x="1295.64" y="420" width="164.36" height="30" as="geometry" />
        </mxCell>
        <mxCell id="FTJUeHpepgrzn1fPxxzk-59" value="Orchestrator" style="rounded=1;whiteSpace=wrap;html=1;fillColor=#ffe6cc;strokeColor=#d79b00;" vertex="1" parent="1">
          <mxGeometry x="1090" y="405" width="120" height="60" as="geometry" />
        </mxCell>
        <mxCell id="FTJUeHpepgrzn1fPxxzk-61" value="SDK" style="rounded=1;whiteSpace=wrap;html=1;fillColor=#fff2cc;strokeColor=#d6b656;" vertex="1" parent="1">
          <mxGeometry x="1090" y="495" width="120" height="60" as="geometry" />
        </mxCell>
        <mxCell id="FTJUeHpepgrzn1fPxxzk-64" style="edgeStyle=orthogonalEdgeStyle;rounded=0;orthogonalLoop=1;jettySize=auto;html=1;exitX=0;exitY=0.5;exitDx=0;exitDy=0;entryX=1;entryY=0.5;entryDx=0;entryDy=0;" edge="1" parent="1" source="FTJUeHpepgrzn1fPxxzk-63" target="FTJUeHpepgrzn1fPxxzk-58">
          <mxGeometry relative="1" as="geometry" />
        </mxCell>
        <mxCell id="FTJUeHpepgrzn1fPxxzk-63" value="SDK" style="rounded=1;whiteSpace=wrap;html=1;fillColor=#fff2cc;strokeColor=#d6b656;" vertex="1" parent="1">
          <mxGeometry x="1560" y="405" width="120" height="60" as="geometry" />
        </mxCell>
        <mxCell id="FTJUeHpepgrzn1fPxxzk-66" style="edgeStyle=orthogonalEdgeStyle;rounded=0;orthogonalLoop=1;jettySize=auto;html=1;exitX=0;exitY=0.5;exitDx=0;exitDy=0;entryX=1;entryY=0.5;entryDx=0;entryDy=0;" edge="1" parent="1" source="FTJUeHpepgrzn1fPxxzk-65" target="FTJUeHpepgrzn1fPxxzk-82">
          <mxGeometry relative="1" as="geometry" />
        </mxCell>
        <mxCell id="FTJUeHpepgrzn1fPxxzk-65" value="Orchestrator" style="rounded=1;whiteSpace=wrap;html=1;fillColor=#ffe6cc;strokeColor=#d79b00;" vertex="1" parent="1">
          <mxGeometry x="1560" y="505" width="120" height="60" as="geometry" />
        </mxCell>
        <mxCell id="FTJUeHpepgrzn1fPxxzk-67" value="" style="endArrow=none;html=1;rounded=0;strokeWidth=3;" edge="1" parent="1">
          <mxGeometry width="50" height="50" relative="1" as="geometry">
            <mxPoint x="860" y="630" as="sourcePoint" />
            <mxPoint x="1760" y="630" as="targetPoint" />
          </mxGeometry>
        </mxCell>
        <mxCell id="FTJUeHpepgrzn1fPxxzk-68" value="Virtualhost: /omotes/" style="text;html=1;align=center;verticalAlign=middle;whiteSpace=wrap;rounded=0;" vertex="1" parent="1">
          <mxGeometry x="1270" y="380" width="123.42" height="30" as="geometry" />
        </mxCell>
        <mxCell id="FTJUeHpepgrzn1fPxxzk-69" value="Virtualhost: /omotes/" style="text;html=1;align=center;verticalAlign=middle;whiteSpace=wrap;rounded=0;" vertex="1" parent="1">
          <mxGeometry x="1270" y="210" width="123.42" height="30" as="geometry" />
        </mxCell>
        <mxCell id="FTJUeHpepgrzn1fPxxzk-70" value="Virtualhost: /omotes/" style="text;html=1;align=center;verticalAlign=middle;whiteSpace=wrap;rounded=0;" vertex="1" parent="1">
          <mxGeometry x="1270" y="70" width="123.42" height="30" as="geometry" />
        </mxCell>
        <mxCell id="FTJUeHpepgrzn1fPxxzk-71" value="" style="endArrow=none;html=1;rounded=0;strokeWidth=3;" edge="1" parent="1">
          <mxGeometry width="50" height="50" relative="1" as="geometry">
            <mxPoint x="860" y="810" as="sourcePoint" />
            <mxPoint x="1760" y="810" as="targetPoint" />
          </mxGeometry>
        </mxCell>
        <mxCell id="FTJUeHpepgrzn1fPxxzk-72" value="Virtualhost: /omotes_celery/" style="text;html=1;align=center;verticalAlign=middle;whiteSpace=wrap;rounded=0;" vertex="1" parent="1">
          <mxGeometry x="1270" y="810" width="155" height="30" as="geometry" />
        </mxCell>
        <mxCell id="FTJUeHpepgrzn1fPxxzk-73" value="Communicate job results and progress events" style="shape=note;strokeWidth=2;fontSize=14;size=20;whiteSpace=wrap;html=1;fillColor=#fff2cc;strokeColor=#d6b656;fontColor=#666600;" vertex="1" parent="1">
          <mxGeometry x="890" y="680" width="110.00000000000001" height="80" as="geometry" />
        </mxCell>
        <mxCell id="FTJUeHpepgrzn1fPxxzk-74" value="Celery managed. Submit jobs to workers and control workers" style="shape=note;strokeWidth=2;fontSize=14;size=20;whiteSpace=wrap;html=1;fillColor=#fff2cc;strokeColor=#d6b656;fontColor=#666600;" vertex="1" parent="1">
          <mxGeometry x="890" y="880" width="110.00000000000001" height="80" as="geometry" />
        </mxCell>
        <mxCell id="FTJUeHpepgrzn1fPxxzk-76" value="" style="rounded=1;whiteSpace=wrap;html=1;fillColor=#dae8fc;strokeColor=#6c8ebf;" vertex="1" parent="1">
          <mxGeometry x="1275.3" y="520" width="164.09" height="30" as="geometry" />
        </mxCell>
        <mxCell id="FTJUeHpepgrzn1fPxxzk-80" value="" style="rounded=1;whiteSpace=wrap;html=1;fillColor=#dae8fc;strokeColor=#6c8ebf;" vertex="1" parent="1">
          <mxGeometry x="1285.3" y="530" width="164.09" height="30" as="geometry" />
        </mxCell>
        <mxCell id="FTJUeHpepgrzn1fPxxzk-81" value="available_workflows.&amp;lt;SDK_id&amp;gt;" style="rounded=1;whiteSpace=wrap;html=1;fillColor=#dae8fc;strokeColor=#6c8ebf;" vertex="1" parent="1">
          <mxGeometry x="1295.3" y="540" width="164.09" height="30" as="geometry" />
        </mxCell>
        <mxCell id="FTJUeHpepgrzn1fPxxzk-82" value="&lt;b&gt;Routing key: &lt;/b&gt;available_workflows" style="rounded=1;whiteSpace=wrap;html=1;fillColor=#e1d5e7;strokeColor=#9673a6;" vertex="1" parent="1">
          <mxGeometry x="1310.54" y="480" width="164.09" height="30" as="geometry" />
        </mxCell>
        <mxCell id="FTJUeHpepgrzn1fPxxzk-83" value="SDK" style="rounded=1;whiteSpace=wrap;html=1;fillColor=#fff2cc;strokeColor=#d6b656;" vertex="1" parent="1">
          <mxGeometry x="1100" y="505" width="120" height="60" as="geometry" />
        </mxCell>
        <mxCell id="FTJUeHpepgrzn1fPxxzk-84" value="SDK" style="rounded=1;whiteSpace=wrap;html=1;fillColor=#fff2cc;strokeColor=#d6b656;" vertex="1" parent="1">
          <mxGeometry x="1110" y="515" width="120" height="60" as="geometry" />
        </mxCell>
      </root>
    </mxGraphModel>
  </diagram>
</mxfile>
